<svg viewBox="0 0 18 18" class="" role="presentation" focusable="false" xmlns:svg="http://www.w3.org/2000/svg" xmlns:xlink="http://www.w3.org/1999/xlink" id="FxSymbol0-06a" data-type="1"><g><title></title><defs><linearGradient id="c" x1="153.547" y1="263.242" x2="153.547" y2="98.855" gradientUnits="userSpaceOnUse"><stop stop-color="#949494"></stop><stop offset=".41" stop-color="#C1C1C1"></stop><stop offset="1" stop-color="#fff"></stop></linearGradient><clipPath id="b"><path d="M14.969 7.53a6.137 6.137 0 1 1-7.395-4.543 6.137 6.137 0 0 1 7.395 4.543z" fill="none"></path></clipPath><clipPath id="a"><path d="M0 0h287v287H0z" class="msportalfx-svg-c01"></path></clipPath></defs><title>Icon-web-48</title><path d="M14.18 6.49H9.65A4 4 0 0 0 5.9 10h1.42a2.49 2.49 0 0 1 2.33-2h4.53a2.59 2.59 0 0 1 2.44 2.71 2.6 2.6 0 0 1-2.44 2.72H9.65a2.49 2.49 0 0 1-2.33-2H5.9A4 4 0 0 0 9.65 15h4.53A4.06 4.06 0 0 0 18 10.74a4.06 4.06 0 0 0-3.82-4.25z" fill="url(#a)"></path><path d="M8.35 10H3.82a2.59 2.59 0 0 1-2.44-2.74 2.6 2.6 0 0 1 2.44-2.72h4.53a2.49 2.49 0 0 1 2.33 2h1.42A4 4 0 0 0 8.35 3H3.82A4.06 4.06 0 0 0 0 7.26a4.06 4.06 0 0 0 3.82 4.25h4.53A4 4 0 0 0 12.1 8h-1.42a2.49 2.49 0 0 1-2.33 2z" fill="url(#b)"></path><path d="M8.35 10h-3v1.54h3A4 4 0 0 0 12.1 8h-1.42a2.49 2.49 0 0 1-2.33 2z" fill="url(#c)"></path><path fill="none" d="M0 0h18v18H0z"></path></g></svg>