<svg xmlns="http://www.w3.org/2000/svg" xmlns:xlink="http://www.w3.org/1999/xlink" width="64" height="64" viewBox="0 0 100 100">
  <defs>
    <linearGradient id="a" x1="12.59" y1="449.677" x2="88.002" y2="449.677" gradientTransform="matrix(1, 0, 0, -1, 0, 506.001)" gradientUnits="userSpaceOnUse">
      <stop offset="0" stop-color="#005ba1"/>
      <stop offset="0.07" stop-color="#0060a9"/>
      <stop offset="0.36" stop-color="#0071c8"/>
      <stop offset="0.52" stop-color="#0078d4"/>
      <stop offset="0.64" stop-color="#0074cd"/>
      <stop offset="0.82" stop-color="#006abb"/>
      <stop offset="1" stop-color="#005ba1"/>
    </linearGradient>
    <linearGradient id="b" x1="81" y1="98.247" x2="81" y2="60.247" gradientUnits="userSpaceOnUse">
      <stop offset="0" stop-color="#5e9624"/>
      <stop offset="0.254" stop-color="#619c25"/>
      <stop offset="0.511" stop-color="#76bc2d"/>
      <stop offset="0.91" stop-color="#86d633"/>
      <stop offset="1" stop-color="#86d633"/>
    </linearGradient>
  </defs>
  <title>LiftAndShiftIR</title>
  <rect width="100" height="100" fill="none"/>
  <path d="M50.3,26.794c-20.824,0-37.706-5.882-37.706-13.647V85.853c0,7.471,16.588,13.529,37.176,13.647h.53C71.119,99.5,88,93.618,88,85.853V13.147C88,20.735,71.119,26.794,50.3,26.794Z" fill="url(#a)"/>
  <path d="M88,13.147C88,20.735,71.119,26.794,50.3,26.794S12.59,20.912,12.59,13.147,29.472-.5,50.3-.5,88,5.382,88,13.147" fill="#e8e8e8"/>
  <path d="M79.237,12.029c0,4.824-13,8.706-28.941,8.706s-28.941-3.882-28.941-8.706,13-8.647,28.941-8.647,28.941,3.883,28.941,8.647" fill="#50e6ff"/>
  <path d="M50.3,14.206a67.947,67.947,0,0,0-22.882,3.353A67.164,67.164,0,0,0,50.3,20.735a65.58,65.58,0,0,0,22.882-3.411A69.612,69.612,0,0,0,50.3,14.206Z" fill="#198ab3"/>
  <circle cx="81" cy="79.247" r="19" fill="url(#b)"/>
  <rect x="66.547" y="77.911" width="3.597" height="2.672" fill="#fff"/>
  <rect x="91.857" y="77.911" width="3.597" height="2.672" fill="#fff"/>
  <path d="M81.916,87.316V81.642H76.1V71.189l-3.311.02a2.7,2.7,0,0,0-2.679,2.715l.072,10.79h0a2.7,2.7,0,0,0,2.7,2.679H72.9" fill="#fff"/>
  <path d="M80.264,71.179v6.3h5.819v9.833l3.13-.022a2.7,2.7,0,0,0,2.679-2.715l-.071-10.79h0a2.7,2.7,0,0,0-2.7-2.68h-.018" fill="#fff"/>
  <circle cx="81" cy="79.247" r="19" fill="url(#b)"/>
  <rect x="66.547" y="77.911" width="3.597" height="2.672" fill="#fff"/>
  <rect x="91.857" y="77.911" width="3.597" height="2.672" fill="#fff"/>
  <path d="M81.916,87.316V81.642H76.1V71.189l-3.311.02a2.7,2.7,0,0,0-2.679,2.715l.072,10.79h0a2.7,2.7,0,0,0,2.7,2.679H72.9" fill="#fff"/>
  <path d="M80.264,71.179v6.3h5.819v9.833l3.13-.022a2.7,2.7,0,0,0,2.679-2.715l-.071-10.79h0a2.7,2.7,0,0,0-2.7-2.68h-.018" fill="#fff"/>
  <g>
    <circle cx="77.116" cy="77.207" r="19.766" fill="#fff"/>
    <path d="M77.117,60.442A16.766,16.766,0,1,1,60.351,77.207,16.765,16.765,0,0,1,77.117,60.442m0-6A22.766,22.766,0,1,0,99.882,77.207,22.791,22.791,0,0,0,77.117,54.442Z" fill="#212121"/>
  </g>
  <g>
    <rect x="62.968" y="75.996" width="3.607" height="2.68" fill="#76bc2d"/>
    <rect x="88.348" y="75.996" width="3.607" height="2.68" fill="#76bc2d"/>
    <path d="M78.38,85.428V79.737H72.545V69.255l-3.32.02A2.7,2.7,0,0,0,66.539,72l.072,10.82h0a2.707,2.707,0,0,0,2.7,2.687h.018" fill="#76bc2d"/>
    <path d="M76.724,69.245v6.314h5.835V85.42L85.7,85.4a2.7,2.7,0,0,0,2.687-2.723l-.072-10.82h0a2.708,2.708,0,0,0-2.7-2.687h-.018" fill="#76bc2d"/>
  </g>
</svg>
