<svg xmlns="http://www.w3.org/2000/svg"  viewBox="0 0 18 18" class="" role="presentation" focusable="false"   id="FxSymbol0-124" data-type="1"><g><title></title><defs><clipPath id="2219506819842536"><path d="M0 0h287v287H0z" class="msportalfx-svg-c01"></path></clipPath><linearGradient id="23558663659332524" x1="153.547" y1="263.242" x2="153.547" y2="98.855" gradientUnits="userSpaceOnUse"><stop stop-color="#949494"></stop><stop offset=".41" stop-color="#C1C1C1"></stop><stop offset="1" stop-color="#fff"></stop></linearGradient><linearGradient id="4820485814980202" x1="143.5" y1="286.841" x2="143.5" y2="-22.641" gradientUnits="userSpaceOnUse"><stop stop-color="#0078D4"></stop><stop offset=".14" stop-color="#077BD6"></stop><stop offset=".34" stop-color="#1A83DB"></stop><stop offset=".59" stop-color="#3990E4"></stop><stop offset=".82" stop-color="#5EA0EF"></stop></linearGradient></defs><path fill="#5ea0ef" d="M7.132 4.469L3.567 6.542 0 4.468l3.567-2.073 3.565 2.074z"></path><path fill="#005ba1" d="M7.132 13.794l-3.566-2.059v4.132l3.566-2.073z"></path><path fill="#0078d4" d="M3.567 6.542l-.001-.001v.001L0 4.468v9.333l3.566 2.073 3.566-2.073v-.007l-3.566 2.073v-4.132l3.566 2.059V4.469L3.567 6.542z"></path><path fill="#9cebff" d="M10.868 4.469l3.565 2.073L18 4.468l-3.567-2.073-3.565 2.074z"></path><path fill="#32bedd" d="M10.868 13.794l3.566-2.059v4.132l-3.566-2.073z"></path><path fill="url(#4820485814980202)" d="M14.433 6.535h.001v5.193l-3.566 2.066V4.462l3.565 2.073z"></path><path fill="#9cebff" d="M10.868 4.469l3.565 2.073L18 4.468l-3.567-2.073-3.565 2.074z"></path><path fill="#50e6ff" d="M14.433 6.542l-3.565-2.073v9.325l3.566-2.059v4.132l-3.566-2.073v.007l3.566 2.073L18 13.801V4.468l-3.567 2.074z"></path><path fill="#32bedd" d="M10.868 13.794l3.566-2.059v4.132l-3.566-2.073z"></path><path fill="url(#4820485814980202)" d="M14.433 6.535h.001v5.193l-3.566 2.066V4.462l3.565 2.073z"></path><path fill="url(#23558663659332524)" d="M3.567 6.541h-.001v5.193l3.566 2.067V4.469L3.567 6.541z"></path><path d="M14.423 10.126c-.624 1.556-3.066 2.584-5.348 2.584h-.161c-2.282 0-4.724-1.028-5.348-2.584 0 0-.025-1.561 0-1.713.454 1.737 2.834 3.022 5.293 3.022h.271c2.455 0 4.839-1.285 5.293-3.022.025.152 0 1.713 0 1.713zM13.4 5.942a6.653 6.653 0 0 1-4.27 1.474h-.271a6.656 6.656 0 0 1-4.267-1.47l-.856.5C4.553 7.809 6.8 8.69 8.914 8.69h.161c2.115 0 4.366-.883 5.181-2.251z" fill="url(#2219506819842536)"></path></g></svg>