<svg viewBox="0 0 50 50" class="" role="presentation" focusable="false" xmlns:svg="http://www.w3.org/2000/svg" xmlns:xlink="http://www.w3.org/1999/xlink" id="FxSymbol0-064" data-type="1"><g><title></title><path d="M2 46h46a2 2 0 0 0 2-2V11H0v33a2 2 0 0 0 2 2z" style="fill: rgb(160, 161, 162);"></path><path d="M0 5.988V11h50V5.988A1.994 1.994 0 0 0 48 4H2C.895 4 0 4.89 0 5.988z" style="fill: rgb(122, 122, 122);"></path><path d="M4 25h42v7H4zm0-10h42v7H4z" style="fill: rgb(255, 255, 255);"></path><path d="M4 35h42v7H4z" style="fill: rgb(184, 212, 50);"></path><path opacity=".2" d="M43.6 4H1.988C.89 4 0 4.89 0 5.988V44a2 2 0 0 0 2 2h2L43.6 4z" style="fill: rgb(255, 255, 255);"></path><path opacity=".4" d="M12 22v17h11v-4h4v4h11V22z" style="fill: rgb(255, 255, 255);"></path><path d="M13 19v19h9V26h6v12h9V19z" style="fill: rgb(0, 114, 198);"></path></g></svg>