<svg viewBox="0 0 115 115" class="" role="presentation" focusable="false" xmlns:svg="http://www.w3.org/2000/svg" xmlns:xlink="http://www.w3.org/1999/xlink" id="FxSymbol0-0a2" data-type="1"><g><title></title><title>atlasicon</title><path d="M92.704 102.91c-25.07 19.5-61.117 14.912-80.615-10.16C-7.41 67.678-2.821 31.626 22.248 12.126c.163-.164.327-.328.655-.492 25.233-19.173 61.28-14.093 80.451 11.143 19.007 25.236 14.255 60.796-10.65 80.133z" fill="url(#6935753649850085)"></path><path d="M66.651 15.403L23.886 83.41l53.58-20.811L66.65 15.403z" fill="#9CEBFF"></path><path opacity=".7" d="M57.967 29.168L84.511 93.57l-17.86-78.166-8.684 13.765z" style="fill: rgb(255, 255, 255);"></path><path d="M56.492 70.791l16.058-6.227 11.96 29.169L56.492 70.79z" fill="#32BEDD"></path><defs><linearGradient id="6935753649850085" x1="57.859" y1="115.398" x2="57.859" y2=".564" gradientUnits="userSpaceOnUse"><stop stop-color="#198AB3"></stop><stop offset=".442" stop-color="#28B7DB"></stop><stop offset=".775" stop-color="#32D4F5"></stop></linearGradient></defs></g></svg>