<svg viewBox="0 0 50 50" class="fxs-portal-svg" role="presentation" focusable="false" xmlns:svg="http://www.w3.org/2000/svg" xmlns:xlink="http://www.w3.org/1999/xlink" id="FxSymbol0-045" data-type="1"><g><title></title><path d="M42 11.318C41.64 4.74 36.015-.301 29.437.059A11.926 11.926 0 0 0 20.4 5.011a9.444 9.444 0 0 0-14.932 9.8A8.97 8.97 0 0 0 9.164 31.95h30.378c5.779-.003 10.461-4.689 10.458-10.468a10.463 10.463 0 0 0-8-10.164z" style="fill: rgb(89, 180, 217);"></path><path d="M13.1 21.95a1 1 0 0 0-1 1v26a1 1 0 0 0 1 1h24a1 1 0 0 0 1-1v-26a1 1 0 0 0-1-1h-24z" style="fill: rgb(128, 73, 152);"></path><path d="M23.1 21.95v-7h-3l5-7 5 7h-3v7zm10 3h-18v22h20v-22h-2z" style="fill: rgb(255, 255, 255);"></path><path d="M17.067 26.95h4v18h-4zm6 0h4v18h-4zm6 0h4v18h-4z" style="fill: rgb(128, 73, 152);"></path></g></svg>