<?xml version="1.0" encoding="UTF-8" standalone="no"?>
<svg
   xmlns:dc="http://purl.org/dc/elements/1.1/"
   xmlns:cc="http://creativecommons.org/ns#"
   xmlns:rdf="http://www.w3.org/1999/02/22-rdf-syntax-ns#"
   xmlns:svg="http://www.w3.org/2000/svg"
   xmlns="http://www.w3.org/2000/svg"
   xmlns:sodipodi="http://sodipodi.sourceforge.net/DTD/sodipodi-0.dtd"
   xmlns:inkscape="http://www.inkscape.org/namespaces/inkscape"
   viewBox="0 0 18 18"
   class=""
   role="presentation"
   focusable="false"
   id="FxSymbol0-059"
   data-type="1"
   version="1.1"
   sodipodi:docname="Data factories.svg"
   inkscape:export-filename="E:\Github\azure-portal-icons\icons\Data factories.png"
   inkscape:export-xdpi="7173.3301"
   inkscape:export-ydpi="7173.3301"
   inkscape:version="0.92.2 (5c3e80d, 2017-08-06)">
  <metadata
     id="metadata46">
    <rdf:RDF>
      <cc:Work
         rdf:about="">
        <dc:format>image/svg+xml</dc:format>
        <dc:type
           rdf:resource="http://purl.org/dc/dcmitype/StillImage" />
      </cc:Work>
    </rdf:RDF>
  </metadata>
  <defs
     id="defs44" />
  <sodipodi:namedview
     pagecolor="#ffffff"
     bordercolor="#666666"
     borderopacity="1"
     objecttolerance="10"
     gridtolerance="10"
     guidetolerance="10"
     inkscape:pageopacity="0"
     inkscape:pageshadow="2"
     inkscape:window-width="640"
     inkscape:window-height="480"
     id="namedview42"
     showgrid="false"
     inkscape:current-layer="FxSymbol0-059" />
  <g
     id="g39">
    <title
       id="title2" />
    <defs
       id="defs19">
      <linearGradient
         id="bbbacc5e-9409-4fc1-a31a-b0181c36d731"
         x1=".5"
         y1="9.77"
         x2="9"
         y2="9.77"
         gradientUnits="userSpaceOnUse">
        <stop
           offset="0"
           stop-color="#005ba1"
           id="stop4" />
        <stop
           offset=".07"
           stop-color="#0060a9"
           id="stop6" />
        <stop
           offset=".36"
           stop-color="#0071c8"
           id="stop8" />
        <stop
           offset=".52"
           stop-color="#0078d4"
           id="stop10" />
        <stop
           offset=".64"
           stop-color="#0074cd"
           id="stop12" />
        <stop
           offset=".81"
           stop-color="#006abb"
           id="stop14" />
        <stop
           offset=".99"
           stop-color="#005ba1"
           id="stop16" />
      </linearGradient>
    </defs>
    <title
       id="title21">Icon-analytics-146</title>
    <path
       d="M13.25 10.48V6.57a.14.14 0 0 0-.24-.1l-4 4-4.16 4.16v2.87h12.08a.56.56 0 0 0 .57-.57V6.57a.14.14 0 0 0-.24-.1z"
       fill="#005ba1"
       id="path23" />
    <path
       d="M4.75 3.58C2.4 3.58.5 2.89.5 2v14.93a.56.56 0 0 0 .57.57H9V2c0 .89-1.9 1.58-4.25 1.58z"
       fill="url(#bbbacc5e-9409-4fc1-a31a-b0181c36d731)"
       id="path25" />
    <rect
       x="12.91"
       y="12.97"
       width="2.27"
       height="2.27"
       rx=".28"
       style="fill: rgb(255, 255, 255);"
       id="rect27" />
    <rect
       x="8.97"
       y="12.97"
       width="2.27"
       height="2.27"
       rx=".28"
       style="fill: rgb(255, 255, 255);"
       id="rect29" />
    <rect
       x="5.03"
       y="12.97"
       width="2.27"
       height="2.27"
       rx=".28"
       style="fill: rgb(255, 255, 255);"
       id="rect31" />
    <path
       d="M9 2c0 .85-1.9 1.54-4.25 1.54S.5 2.89.5 2 2.4.5 4.75.5 9 1.19 9 2"
       fill="#eaeaea"
       id="path33" />
    <path
       d="M8 1.91c0 .55-1.46 1-3.26 1s-3.26-.43-3.26-1S3 .94 4.75.94 8 1.37 8 1.91"
       fill="#50e6ff"
       id="path35" />
    <path
       d="M4.75 2.14a8.07 8.07 0 0 0-2.58.37 7.64 7.64 0 0 0 2.58.38 7.64 7.64 0 0 0 2.58-.38 8.07 8.07 0 0 0-2.58-.37z"
       fill="#198ab3"
       id="path37" />
  </g>
</svg>
