<svg viewBox="0 0 50 50" class="fxs-portal-svg" role="presentation" focusable="false" xmlns:svg="http://www.w3.org/2000/svg" xmlns:xlink="http://www.w3.org/1999/xlink" aria-hidden="true"><g><path d="M37.858 5.96C26.842 4.745 24.999 0 24.999 0S22.52 6.242 6.673 6.242v25.61c0 3.097 1.721 5.997 4.104 8.532C16.179 46.132 25 50 25 50s18.327-8.029 18.327-18.149V6.242c-2.038 0-3.851-.103-5.469-.282z" class="msportalfx-svg-c14"></path><path d="M33 37.579c0 .785-.619 1.421-1.383 1.421H18.383C17.619 39 17 38.364 17 37.579V12.421c0-.785.619-1.421 1.383-1.421h13.234c.764 0 1.383.636 1.383 1.421v25.158z" style="fill: rgb(62, 62, 62);"></path><path d="M19.28 15.5c0-.987.779-1.787 1.739-1.787h7.963c.96 0 1.739.8 1.739 1.787 0 .987-.779 1.787-1.739 1.787h-7.963c-.961.001-1.739-.8-1.739-1.787z" style="fill: rgb(30, 30, 30);"></path><ellipse cx="21.093" cy="15.5" rx="1.167" ry="1.2" style="fill: rgb(184, 212, 50);"></ellipse><path d="M19.28 20.5c0-.987.779-1.787 1.739-1.787h7.963c.96 0 1.739.8 1.739 1.787 0 .987-.779 1.787-1.739 1.787h-7.963c-.961.001-1.739-.8-1.739-1.787z" style="fill: rgb(30, 30, 30);"></path><ellipse cx="21.093" cy="20.5" rx="1.167" ry="1.2" style="fill: rgb(184, 212, 50);"></ellipse><path d="M19.28 25.5c0-.987.779-1.787 1.739-1.787h7.963c.96 0 1.739.8 1.739 1.787 0 .987-.779 1.787-1.739 1.787h-7.963c-.961.001-1.739-.8-1.739-1.787z" style="fill: rgb(30, 30, 30);"></path><ellipse cx="21.093" cy="25.5" rx="1.167" ry="1.2" style="fill: rgb(184, 212, 50);"></ellipse><path opacity=".2" d="M29.533 16.543L37.858 5.96C26.842 4.745 24.999 0 24.999 0S22.52 6.242 6.673 6.242v25.61c0 3.097 1.721 5.997 4.104 8.532l6.154-7.822 12.602-16.019z" style="fill: rgb(255, 255, 255);"></path></g></svg>