<svg viewBox="0 0 50 50" class="" role="presentation" focusable="false" xmlns:svg="http://www.w3.org/2000/svg" xmlns:xlink="http://www.w3.org/1999/xlink" id="FxSymbol0-0c6" data-type="1"><g><title></title><path d="M31 0H3v36h28V0z" style="fill: rgb(0, 114, 198);"></path><path d="M18 9v37h25.901L44 9H18zm23.915 2v15H19.986V11h21.929zM19.986 44V28h21.929v16H19.986z" style="fill: rgb(0, 114, 198);"></path><circle cx="19" cy="45" r="4.9" style="fill: rgb(87, 163, 0);"></circle><path d="M19 46.9c-1.048 0-1.9-.853-1.9-1.9s.853-1.9 1.9-1.9 1.9.852 1.9 1.9-.852 1.9-1.9 1.9z" style="fill: rgb(255, 255, 255);"></path><circle cx="43" cy="45" r="4.9" style="fill: rgb(87, 163, 0);"></circle><path d="M43 46.9c-1.048 0-1.9-.853-1.9-1.9s.853-1.9 1.9-1.9 1.9.852 1.9 1.9-.852 1.9-1.9 1.9z" style="fill: rgb(255, 255, 255);"></path><circle cx="43" cy="10" r="4.9" style="fill: rgb(87, 163, 0);"></circle><circle cx="43" cy="10" r="1.9" style="fill: rgb(255, 255, 255);"></circle><circle cx="43" cy="27" r="4.9" style="fill: rgb(87, 163, 0);"></circle><circle cx="43" cy="27" r="1.9" style="fill: rgb(255, 255, 255);"></circle><path opacity=".3" d="M5.901 2.9h22.257v29.999H5.901z" style="fill: rgb(255, 255, 255);"></path><path opacity=".6" d="M22.854 11H31V9h-8.146c-.445-1.664-1.951-2.9-3.754-2.9-2.151 0-3.9 1.75-3.9 3.9 0 1.766 1.188 3.245 2.801 3.723v9.554C16.388 23.755 15.2 25.234 15.2 27s1.188 3.245 2.801 3.723L18 36h1.986v-5.211A3.9 3.9 0 0 0 22.854 28H31v-2h-8.146a3.896 3.896 0 0 0-2.868-2.789v-9.422A3.9 3.9 0 0 0 22.854 11z" style="fill: rgb(0, 24, 143);"></path></g></svg>