<svg viewBox="0 0 50 50" class="" role="presentation" focusable="false" xmlns:svg="http://www.w3.org/2000/svg" xmlns:xlink="http://www.w3.org/1999/xlink" id="FxSymbol0-0a7" data-type="1"><g><title></title><path d="M3.167 13h22.667v4H3.167zm5 10h25.667v4H8.167zm-5 10h22.667v4H3.167z" style="fill: rgb(0, 114, 198);"></path><circle cx="4" cy="35" r="3.9" style="fill: rgb(184, 212, 50);"></circle><ellipse transform="rotate(-45.001 4 15)" cx="4" cy="15" rx="3.9" ry="3.9" style="fill: rgb(184, 212, 50);"></ellipse><ellipse transform="rotate(-45.001 9 25)" cx="9" cy="25" rx="3.9" ry="3.9" style="fill: rgb(89, 180, 217);"></ellipse><path d="M24 20V10l8 5zm0 20V30l8 5zm8-10V20l8 5zm17.2 8.6h-4.8c-.5 0-.8.3-.8.8v4H7V50h42.2c.5 0 .8-.3.8-.8v-9.8c0-.5-.3-.8-.8-.8zM49.281 0H7v6.7h36.381v4.2c0 .5.3.8 1 .8h4.8c.5 0 .8-.3.8-.8V.9c.1-.6-.2-.9-.7-.9z" style="fill: rgb(0, 114, 198);"></path></g></svg>