<svg viewBox="0 0 24 24" role="presentation" focusable="false" xmlns:svg="http://www.w3.org/2000/svg" xmlns:xlink="http://www.w3.org/1999/xlink" aria-hidden="true"><g><title>- Icon - SVG 24x24 Color</title><path d="M20.217 2.907h-3.035a5.169 5.169 0 0 1-1.272 3.396l1.823 3.157 1.255 2.174a5.05 5.05 0 0 1 3.39.636L24 9.46zm-5.41 15.356H9.165a5.215 5.215 0 0 1-2.36 2.984l1.412 2.444h7.566l1.404-2.432a5.216 5.216 0 0 1-2.38-2.996zm-5.48-2.25h5.318a5.2 5.2 0 0 1 2.223-3.55l-2.777-4.81a5.156 5.156 0 0 1-4.188.01l-2.78 4.814a5.199 5.199 0 0 1 2.205 3.536zM6.79 2.907H3.784L0 9.46l1.615 2.797a5.06 5.06 0 0 1 3.395-.62L6.267 9.46l1.812-3.139A5.169 5.169 0 0 1 6.79 2.907z" fill="#59b3d8"></path><circle cx="11.986" cy="2.907" r="2.598" style="fill: rgb(62, 62, 62);"></circle><circle cx="19.78" cy="16.763" r="2.598" style="fill: rgb(62, 62, 62);"></circle><circle cx="4.192" cy="16.763" r="2.598" style="fill: rgb(62, 62, 62);"></circle><path d="M14.807 18.263h-3.284a8.395 8.395 0 0 0 3.514 5.428h.746l1.405-2.432a5.216 5.216 0 0 1-2.38-2.996zm4.973-9.898a8.393 8.393 0 0 0-2.466.37l.419.725 1.255 2.174a5.05 5.05 0 0 1 3.39.636l1.6-2.773a8.348 8.348 0 0 0-4.198-1.132zm-2.912 4.098l-1.602-2.774a8.386 8.386 0 0 0-3.846 6.324h3.225a5.2 5.2 0 0 1 2.223-3.55z" opacity=".2" style="fill: rgb(255, 255, 255);"></path></g></svg>