<svg xmlns="http://www.w3.org/2000/svg"  viewBox="0 0 18 18" class="" role="presentation" focusable="false"   id="FxSymbol0-135" data-type="1"><g><title></title><defs><linearGradient id="22761489533695567" x1="9" y1="16.39" x2="9" y2="-1.94" gradientUnits="userSpaceOnUse"><stop offset="0" stop-color="#0078d4"></stop><stop offset=".16" stop-color="#1380da"></stop><stop offset=".53" stop-color="#3c91e5"></stop><stop offset=".82" stop-color="#559cec"></stop><stop offset="1" stop-color="#5ea0ef"></stop></linearGradient><linearGradient id="9812909128686442" x1="8.05" y1="15.21" x2="8.05" y2="11.32" gradientUnits="userSpaceOnUse"><stop offset="0" stop-color="#1490df"></stop><stop offset=".98" stop-color="#1f56a3"></stop></linearGradient><linearGradient id="18870717924619385" x1="8.05" y1="11.32" x2="8.05" y2="1.26" gradientUnits="userSpaceOnUse"><stop offset="0" stop-color="#0078d4"></stop><stop offset=".82" stop-color="#5ea0ef"></stop></linearGradient></defs><title>Icon-intune-329</title><rect x=".5" y="1.26" width="15.1" height="10.06" rx=".5" fill="url(#18870717924619385)"></rect><rect x="1.34" y="2.1" width="13.42" height="8.39" rx=".28" style="fill: rgb(255, 255, 255);"></rect><path d="M11.08 14.37c-1.5-.23-1.56-1.31-1.55-3h-3c0 1.74-.06 2.82-1.55 3a.87.87 0 0 0-.74.84h7.54a.88.88 0 0 0-.7-.84z" fill="url(#9812909128686442)"></path><path d="M17.17 5.91h-6.88a2.31 2.31 0 1 0 0 .92H11v9.58a.33.33 0 0 0 .33.33h5.83a.33.33 0 0 0 .33-.33V6.24a.33.33 0 0 0-.32-.33z" fill="#32bedd"></path><rect x="11.62" y="6.82" width="5.27" height="8.7" rx=".12" style="fill: rgb(255, 255, 255);"></rect><circle cx="8.05" cy="6.41" r="1.46" opacity=".9" fill="url(#22761489533695567)"></circle><path d="M14.88 10.82L13.76 9.7a.06.06 0 0 0-.1.05v.68a.06.06 0 0 1-.06.06H11v.83h2.6a.06.06 0 0 1 .06.06v.69a.06.06 0 0 0 .1 0L14.88 11a.12.12 0 0 0 0-.18z" fill="#0078d4"></path></g></svg>