<svg xmlns="http://www.w3.org/2000/svg"  viewBox="0 0 18 18" class="" role="presentation" focusable="false"   id="FxSymbol0-116" data-type="1"><g><title></title><defs><radialGradient id="7805917221412528" cx="38.95" cy="182.07" r="9.88" gradientTransform="matrix(.94 0 0 .94 -28.71 -163.24)" gradientUnits="userSpaceOnUse"><stop offset=".27" stop-color="#ffd70f"></stop><stop offset=".49" stop-color="#ffcb12"></stop><stop offset=".88" stop-color="#feac19"></stop><stop offset="1" stop-color="#fea11b"></stop></radialGradient><linearGradient id="6191431773494287" x1="4.62" y1="13.54" x2="13.47" y2="13.54" gradientUnits="userSpaceOnUse"><stop offset="0" stop-color="#32bedd"></stop><stop offset=".06" stop-color="#37c5e3"></stop><stop offset=".3" stop-color="#49ddf7"></stop><stop offset=".45" stop-color="#50e6ff"></stop><stop offset=".55" stop-color="#50e6ff"></stop><stop offset=".7" stop-color="#49ddf7"></stop><stop offset=".94" stop-color="#37c5e3"></stop><stop offset="1" stop-color="#32bedd"></stop></linearGradient></defs><path d="M9 .5A8.5 8.5 0 1 0 17.5 9 8.51 8.51 0 0 0 9 .5zm0 15.84A7.34 7.34 0 1 1 16.34 9 7.34 7.34 0 0 1 9 16.34z" fill="url(#6191431773494287)"></path><circle cx="9" cy="9" r="7.34" style="fill: rgb(255, 255, 255);"></circle><path d="M13.44 7.33a1.84 1.84 0 0 0 0-2.59l-3.15-3.16a1.83 1.83 0 0 0-2.58 0L4.56 4.74a1.84 1.84 0 0 0 0 2.59L7.18 10a.51.51 0 0 1 .15.36v4.88a.63.63 0 0 0 .18.44l1.2 1.2a.41.41 0 0 0 .58 0l1.16-1.16.68-.68a.25.25 0 0 0 0-.34l-.49-.49a.27.27 0 0 1 0-.37l.49-.49a.25.25 0 0 0 0-.34l-.49-.49a.27.27 0 0 1 0-.37l.49-.49a.25.25 0 0 0 0-.34l-.68-.69v-.25zM9 2.35a1 1 0 0 1 0 2.07 1 1 0 1 1 0-2.07z" fill="url(#7805917221412528)"></path><path d="M8.18 15.3a.23.23 0 0 0 .38-.17v-4a.24.24 0 0 0-.11-.2.22.22 0 0 0-.34.2v4a.28.28 0 0 0 .07.17z" fill="#ff9300" opacity=".75"></path><rect x="6.48" y="5.79" width="5.17" height=".61" rx=".28" fill="#ff9300" opacity=".75"></rect><rect x="6.48" y="6.78" width="5.17" height=".61" rx=".28" fill="#ff9300" opacity=".75"></rect></g></svg>