<svg viewBox="0 0 18 18" class="" role="presentation" focusable="false" xmlns:svg="http://www.w3.org/2000/svg" xmlns:xlink="http://www.w3.org/1999/xlink" id="FxSymbol0-0b1" data-type="1"><g><title></title><defs><clipPath id="b"><path d="M14.969 7.53a6.137 6.137 0 1 1-7.395-4.543 6.137 6.137 0 0 1 7.395 4.543z" fill="none"></path></clipPath><clipPath id="a"><path d="M0 0h287v287H0z" class="msportalfx-svg-c01"></path></clipPath></defs><title>Icon-devops-265</title><path d="M17.5 9.08a3.82 3.82 0 0 0-3.32-3.67A4.81 4.81 0 0 0 9.23.8 5 5 0 0 0 4.48 4a4.54 4.54 0 0 0-4 4.39 4.62 4.62 0 0 0 4.79 4.44 3 3 0 0 0 .42 0h7.75a.64.64 0 0 0 .2 0 3.86 3.86 0 0 0 3.86-3.75z" fill="url(#a)"></path><path d="M14.81 17.2H5.17c-.31 0-.49-.49-.32-.75l3.32-4.84a.34.34 0 0 0 .07-.22v-3.2A.2.2 0 0 0 8.05 8h-.18a.38.38 0 0 1-.38-.38v-.17a.38.38 0 0 1 .38-.38h4.23a.38.38 0 0 1 .38.38v.17a.38.38 0 0 1-.38.38h-.18a.19.19 0 0 0-.19.19v3.21a.36.36 0 0 0 .07.22l3.32 4.83c.17.25-.01.75-.31.75z" fill="url(#b)"></path><path d="M6.28 15.9l2.52-3.68a.94.94 0 0 0 .2-.52v-1.48a.29.29 0 0 1 .29-.29h1.44a.29.29 0 0 1 .29.29v1.58a.61.61 0 0 0 .11.35l2.58 3.75a.23.23 0 0 1-.18.35h-7a.22.22 0 0 1-.25-.35z" style="fill: rgb(255, 255, 255);"></path></g></svg>