<svg xmlns="http://www.w3.org/2000/svg"  viewBox="0 0 40 40" class="" role="presentation" focusable="false"   id="FxSymbol0-113" data-type="1"><g><title></title><path d="M26.875 7.789c0 4.31-3.479 7.789-7.789 7.789s-7.789-3.479-7.789-7.789C11.373 3.479 14.851 0 19.086 0a7.778 7.778 0 0 1 7.789 7.789M24.757 18l-5.671 7.94L13.414 18H5v20h28V18z" style="fill: rgb(89, 180, 217);"></path><path opacity=".2" d="M11.373 7.789c0 4.235 3.403 7.638 7.562 7.789L20.901.303C20.296.076 19.691 0 19.086 0c-4.235 0-7.713 3.479-7.713 7.789M13.414 18H5v20h11.137l1.739-13.668z" style="fill: rgb(255, 255, 255);"></path><circle cx="26.274" cy="26.731" r="4.825" style="fill: rgb(221, 89, 0);"></circle><circle opacity=".7" cx="26.274" cy="26.731" r="3.619" style="fill: rgb(252, 209, 22);"></circle><path d="M26.274 30.349a5.4 5.4 0 0 1-3.645-1.418l-.573 11.004 4.157-4.157L30.435 40l.061-.603-.577-10.466a5.4 5.4 0 0 1-3.645 1.418z" style="fill: rgb(221, 89, 0);"></path></g></svg>