<svg viewBox="0 0 16 16" class="" role="presentation" focusable="false" xmlns="http://www.w3.org/2000/svg"  id="FxSymbol0-0c4" data-type="1"><g><title></title><path d="M11 0H5C3.9 0 3 .9 3 2v14h10V2c0-1.1-.9-2-2-2z" style="fill: rgb(128, 73, 152);"></path><path d="M10.5 4h-5c-.28 0-.5-.22-.5-.5s.22-.5.5-.5h5c.28 0 .5.22.5.5s-.22.5-.5.5zm0 4h-5c-.28 0-.5-.22-.5-.5s.22-.5.5-.5h5c.28 0 .5.22.5.5s-.22.5-.5.5z" style="fill: rgb(229, 229, 229);"></path><circle cx="8" cy="13" r="1" style="fill: rgb(184, 212, 50);"></circle></g></svg>