<svg viewBox="0 0 50 50" class="" role="presentation" focusable="false" xmlns:svg="http://www.w3.org/2000/svg" xmlns:xlink="http://www.w3.org/1999/xlink" id="FxSymbol0-0b9" data-type="1"><g><title></title><path d="M45.9 11c0 3.239-2.661 5.9-5.9 5.9s-5.9-2.661-5.9-5.9 2.661-5.9 5.9-5.9c3.297 0 5.9 2.661 5.9 5.9m-1.503 8l-4.427 6.105L35.603 19H31v15h18V19z" style="fill: rgb(57, 153, 198);"></path><path opacity=".2" d="M34.1 11a5.864 5.864 0 0 0 5.784 5.9l1.504-11.626a4.914 4.914 0 0 0-1.33-.174C36.761 5.1 34.1 7.761 34.1 11m1.503 8H31v15h6.782l1.35-10.067z" style="fill: rgb(255, 255, 255);"></path><path d="M27.9 11c0 5.435-4.465 9.9-9.9 9.9S8.1 16.435 8.1 11s4.465-9.9 9.9-9.9c5.532 0 9.9 4.465 9.9 9.9m-2.084 13l-7.868 10.581L10.184 24H2v26h32V24z" style="fill: rgb(0, 114, 198);"></path><path opacity=".2" d="M8.1 11c0 5.435 4.271 9.803 9.706 9.9L20.33 1.391a8.283 8.283 0 0 0-2.233-.291C12.565 1.1 8.1 5.565 8.1 11m2.014 13H2v26h11.755l2.393-17.837z" style="fill: rgb(255, 255, 255);"></path></g></svg>