<svg xmlns="http://www.w3.org/2000/svg"  viewBox="0 0 18 18" class="" role="presentation" focusable="false"   id="FxSymbol0-0b6" data-type="1"><g><title></title><defs><linearGradient id="9463836721997723" x1="9" y1="18.17" x2="9" y2="1.506" gradientTransform="rotate(45 9 9)" gradientUnits="userSpaceOnUse"><stop offset="0" stop-color="#238ab0"></stop><stop offset=".109" stop-color="#2da4c8"></stop><stop offset=".775" stop-color="#3ed3f2"></stop></linearGradient></defs><title>Icon-310-NATService</title><rect x="2.553" y="2.553" width="12.893" height="12.893" rx=".591" transform="rotate(-45 9 9)" fill="url(#9463836721997723)"></rect><path fill="#9cebff" d="M14.092 10.067l-.358-.358V8.33h-2.857v1.52h1.281L8.94 13.069 5.721 9.85h1.302V8.33H3.885v1.52h.119l-.216.217 4.498 4.498.654-.653.653.653 4.499-4.498z"></path><ellipse cx="3.977" cy="9.09" rx="1.577" ry="1.585" transform="rotate(-45.121 3.977 9.09)" style="fill: rgb(255, 255, 255);"></ellipse><ellipse cx="3.977" cy="9.09" rx=".896" ry=".905" transform="rotate(-45.061 3.976 9.09)" fill="#86d633"></ellipse><ellipse cx="14.014" cy="9.09" rx="1.577" ry="1.585" transform="rotate(-45.121 14.015 9.09)" style="fill: rgb(255, 255, 255);"></ellipse><ellipse cx="14.014" cy="9.09" rx=".896" ry=".905" transform="rotate(-45.061 14.015 9.09)" fill="#86d633"></ellipse><path d="M11.04 4.806l-2-2a.15.15 0 0 0-.213 0l-2 2a.15.15 0 0 0 .106.257h1.135a.107.107 0 0 1 .107.107v10.263H9.7V5.17a.107.107 0 0 1 .1-.107h1.131a.15.15 0 0 0 .109-.257z" style="fill: rgb(255, 255, 255);"></path><ellipse cx="8.935" cy="14.139" rx="1.577" ry="1.585" transform="rotate(-45.121 8.936 14.139)" style="fill: rgb(255, 255, 255);"></ellipse><ellipse cx="8.935" cy="14.139" rx=".896" ry=".905" transform="rotate(-45.061 8.936 14.138)" fill="#86d633"></ellipse></g></svg>