<svg xmlns="http://www.w3.org/2000/svg"  viewBox="0 0 18 18" class="" role="presentation" focusable="false"   id="FxSymbol0-08d" data-type="1"><g><title></title><defs><linearGradient id="7148052278537307" x1="13.971" y1="9.941" x2="13.971" y2="18" gradientUnits="userSpaceOnUse"><stop offset="0" stop-color="#86d633"></stop><stop offset="1" stop-color="#76bc2d"></stop></linearGradient><linearGradient id="12629933330572385" x1="4.029" y1="9.941" x2="4.029" y2="18" gradientUnits="userSpaceOnUse"><stop offset="0" stop-color="#86d633"></stop><stop offset="1" stop-color="#76bc2d"></stop></linearGradient><linearGradient id="35564230516501993" x1="4.029" x2="4.029" y2="8.059" gradientUnits="userSpaceOnUse"><stop offset="0" stop-color="#86d633"></stop><stop offset="1" stop-color="#76bc2d"></stop></linearGradient></defs><path d="M13.971 8.059a.3.3 0 0 1-.3-.3 3.432 3.432 0 0 0-3.429-3.429.3.3 0 0 1-.3-.3.3.3 0 0 1 .3-.3A3.432 3.432 0 0 0 13.67.3a.3.3 0 0 1 .3-.3.3.3 0 0 1 .3.3 3.432 3.432 0 0 0 3.43 3.429.3.3 0 1 1 0 .6 3.432 3.432 0 0 0-3.428 3.428.3.3 0 0 1-.301.302z" fill="#5e9624"></path><rect width="8.059" height="8.059" rx=".6" fill="url(#35564230516501993)"></rect><rect y="9.941" width="8.059" height="8.059" rx=".6" fill="url(#12629933330572385)"></rect><rect x="9.941" y="9.941" width="8.059" height="8.059" rx=".6" fill="url(#7148052278537307)"></rect><path d="M6.516 7.118H1.543a.6.6 0 0 1-.6-.6V1.54a.6.6 0 0 1 .6-.6h4.973a.6.6 0 0 1 .6.6v4.976a.6.6 0 0 1-.6.602zm.6 9.339v-4.973a.6.6 0 0 0-.6-.6H1.54a.6.6 0 0 0-.6.6v4.975a.6.6 0 0 0 .6.6h4.976a.6.6 0 0 0 .602-.602zm9.942 0v-4.973a.6.6 0 0 0-.6-.6h-4.976a.6.6 0 0 0-.6.6v4.975a.6.6 0 0 0 .6.6h4.973a.6.6 0 0 0 .605-.602z" fill="#86d633"></path></g></svg>