<svg viewBox="0 0 18 18" class="" role="presentation" focusable="false" xmlns:svg="http://www.w3.org/2000/svg" xmlns:xlink="http://www.w3.org/1999/xlink" id="FxSymbol0-115" data-type="1"><g><title></title><defs><radialGradient id="fa165c1e-e8e6-4b24-b8c0-57e284d1b1dc" cx="8.8" cy="9.11" r="1.19" gradientUnits="userSpaceOnUse"><stop offset="0" stop-color="#7f7f7f"></stop><stop offset="1" stop-color="#5e5e5e"></stop></radialGradient><radialGradient id="e06ba36b-1ed2-427f-984a-8a1ccedfe1e8" cx="8.81" cy="9" r="8.41" gradientUnits="userSpaceOnUse"><stop offset="0" stop-color="#7956ba"></stop><stop offset=".69" stop-color="#724eb4"></stop><stop offset=".87" stop-color="#6f4bb2"></stop></radialGradient></defs><circle cx="8.83" cy="9.08" r="8.5" fill="#b0b0b0" style="fill: rgb(160, 161, 162);"></circle><circle cx="8.81" cy="9.05" r="7.22" style="fill: rgb(255, 255, 255);"></circle><rect x="12.19" y="4.82" width="1.27" height=".41" transform="rotate(-45 12.823 5.029)" style="fill: rgb(122, 122, 122);"></rect><rect x="13.81" y="8.87" width="1.27" height=".41" style="fill: rgb(122, 122, 122);"></rect><rect x="12.56" y="12.42" width=".41" height="1.27" transform="rotate(-45 12.761 13.064)" style="fill: rgb(122, 122, 122);"></rect><rect x="8.58" y="14.09" width=".41" height="1.27" style="fill: rgb(122, 122, 122);"></rect><rect x="4.49" y="4.35" width=".41" height="1.27" transform="rotate(-45 4.695 4.985)" style="fill: rgb(122, 122, 122);"></rect><rect x="4.12" y="12.89" width="1.27" height=".41" transform="rotate(-45 4.756 13.1)" style="fill: rgb(122, 122, 122);"></rect><rect x="2.4" y="8.87" width="1.27" height=".41" style="fill: rgb(122, 122, 122);"></rect><path d="M8.84.58a.61.61 0 0 0-.61.62.63.63 0 0 0 .62.63 7.26 7.26 0 1 1-5.36 2.35l.51.74 1.42-3.16-3.42.4.75 1A8.49 8.49 0 1 0 8.84.58z" fill="url(#e06ba36b-1ed2-427f-984a-8a1ccedfe1e8)" style="fill: rgb(128, 73, 152);"></path><rect x="8.29" y="2.84" width="1.14" height="6.51" rx=".52" style="fill: rgb(122, 122, 122);"></rect><rect x="9.82" y="8.65" width="1.14" height="4.08" rx=".52" transform="rotate(135 10.385 10.693)" style="fill: rgb(122, 122, 122);"></rect><circle cx="8.81" cy="9.08" r="1.2" fill="url(#fa165c1e-e8e6-4b24-b8c0-57e284d1b1dc)" style="fill: rgb(30, 30, 30);"></circle></g></svg>