<svg viewBox="0 0 50 50" class="" role="presentation" focusable="false" xmlns:svg="http://www.w3.org/2000/svg" xmlns:xlink="http://www.w3.org/1999/xlink" id="FxSymbol0-0b8" data-type="1"><g><title></title><path d="M43.9 9c0 4.886-4.014 8.9-8.9 8.9s-8.9-4.014-8.9-8.9S30.114.1 35 .1c4.973 0 8.9 4.014 8.9 8.9m-2.061 11l-6.885 9.36L28.161 20H21v23h28V20z" style="fill: rgb(57, 153, 198);"></path><path opacity=".2" d="M26.1 9c0 4.886 3.84 8.813 8.726 8.9L37.095.362A7.428 7.428 0 0 0 35.087.1C30.114.1 26.1 4.114 26.1 9m2.078 11H21v23h10.399l2.117-15.779z" style="fill: rgb(255, 255, 255);"></path><path opacity=".2" d="M21 23h5v20h-5z" style="fill: rgb(255, 255, 255);"></path><path d="M0 24h7v7H0z" class="msportalfx-svg-c14"></path><path opacity=".2" d="M0 24h7v7H0z" style="fill: rgb(30, 30, 30);"></path><path d="M9 24h7v7H9z" class="msportalfx-svg-c14"></path><path opacity=".2" d="M9 24h7v7H9z" style="fill: rgb(30, 30, 30);"></path><path d="M18 24h7v7h-7z" class="msportalfx-svg-c14"></path><path opacity=".2" d="M18 24h7v7h-7z" style="fill: rgb(30, 30, 30);"></path><path d="M0 33h7v7H0z" class="msportalfx-svg-c14"></path><path opacity=".2" d="M0 33h7v7H0z" style="fill: rgb(30, 30, 30);"></path><path d="M9 33h7v7H9z" class="msportalfx-svg-c14"></path><path opacity=".2" d="M9 33h7v7H9z" style="fill: rgb(30, 30, 30);"></path><path d="M18 33h7v7h-7z" class="msportalfx-svg-c14"></path><path opacity=".2" d="M18 33h7v7h-7z" style="fill: rgb(30, 30, 30);"></path><path d="M0 42h7v7H0z" class="msportalfx-svg-c14"></path><path opacity=".2" d="M0 42h7v7H0z" style="fill: rgb(30, 30, 30);"></path><path d="M9 42h7v7H9z" class="msportalfx-svg-c14"></path><path opacity=".2" d="M9 42h7v7H9z" style="fill: rgb(30, 30, 30);"></path><path d="M18 42h7v7h-7z" class="msportalfx-svg-c14"></path><path opacity=".2" d="M18 42h7v7h-7z" style="fill: rgb(30, 30, 30);"></path></g></svg>