<svg viewBox="0 0 50 50" role="presentation" focusable="false" xmlns="http://www.w3.org/2000/svg"  aria-hidden="true"><g><path d="M47 38c0 1.657-1.359 3-3.036 3H4.036C2.359 41 1 39.657 1 38V8c0-1.657 1.359-3 3.036-3h39.928C45.641 5 47 6.343 47 8v30z" style="fill: rgb(62, 62, 62);"></path><path d="M3.962 10H44v26H3.962z" style="fill: rgb(57, 153, 198);"></path><path d="M27 7.689c0 .38-.308.688-.688.688H21.89a.689.689 0 1 1 0-1.377h4.422c.38 0 .688.309.688.689" style="fill: rgb(255, 255, 255);"></path><path opacity=".15" d="M32 5H4a3 3 0 0 0-3 3v30a3 3 0 0 0 3 3h12L32 5z" style="fill: rgb(255, 255, 255);"></path><path d="M35 24s-11 1.063-11 14h-5l7.5 9 7.5-9h-5c0-11.52 6-14 6-14z" style="fill: rgb(87, 163, 0);"></path><path d="M35 24s-11 1.063-11 14h-5l7.5 9-.5-4c0-18.884 9-19 9-19zm-1 25s11-1.063 11-14h5l-7.5-9-7.5 9h5c0 11.52-6 14-6 14z" style="fill: rgb(184, 212, 50);"></path><path d="M34 49s11-1.063 11-14h5l-7.5-9 .5 4c0 18.884-9 19-9 19z" style="fill: rgb(87, 163, 0);"></path></g></svg>