<svg xmlns="http://www.w3.org/2000/svg"  viewBox="0 0 50 50" class="" role="presentation" focusable="false"   id="FxSymbol0-081" data-type="1"><g><title></title><path d="M2.293 32L23 17.293 43.707 32 23 47.707 2.293 32z" style="fill: rgb(57, 153, 198);"></path><path d="M7.362 32.079L23 20.973l15.638 11.106L23 43.941z" style="fill: rgb(255, 255, 255);"></path><path opacity=".4" d="M7.362 32.079L23 20.973l15.638 11.106L23 43.941z" style="fill: rgb(89, 180, 217);"></path><circle cx="40" cy="32" r="6.9" style="fill: rgb(255, 255, 255);"></circle><path d="M40 28.1c2.15 0 3.9 1.75 3.9 3.9s-1.75 3.9-3.9 3.9-3.9-1.75-3.9-3.9 1.75-3.9 3.9-3.9m0-3a6.9 6.9 0 1 0 0 13.8 6.9 6.9 0 1 0 0-13.8z" style="fill: rgb(57, 153, 198);"></path><path d="M48.773 9.551C48.773 4.388 44.845.1 40 .1s-8.773 4.113-8.773 9.451S40 29.5 40 33c0-3.5 8.773-18.286 8.773-23.449z" style="fill: rgb(128, 73, 152);"></path><circle cx="40" cy="9" r="3.9" style="fill: rgb(255, 255, 255);"></circle><circle cx="23" cy="20" r="4.9" style="fill: rgb(128, 73, 152);"></circle><circle cx="6" cy="32" r="4.9" style="fill: rgb(128, 73, 152);"></circle><circle cx="23" cy="45" r="4.9" style="fill: rgb(128, 73, 152);"></circle></g></svg>