<?xml version="1.0" encoding="UTF-8" standalone="no"?>
<svg
   xmlns:dc="http://purl.org/dc/elements/1.1/"
   xmlns:cc="http://creativecommons.org/ns#"
   xmlns:rdf="http://www.w3.org/1999/02/22-rdf-syntax-ns#"
   xmlns:svg="http://www.w3.org/2000/svg"
   xmlns="http://www.w3.org/2000/svg"
   xmlns:sodipodi="http://sodipodi.sourceforge.net/DTD/sodipodi-0.dtd"
   xmlns:inkscape="http://www.inkscape.org/namespaces/inkscape"
   viewBox="0 0 18 18"
   data-islogo="true"
   class=""
   role="presentation"
   focusable="false"
   id="FxSymbol0-022"
   data-type="245"
   version="1.1"
   sodipodi:docname="Subnet.svg"
   inkscape:version="0.92.2 (5c3e80d, 2017-08-06)">
  <metadata
     id="metadata34">
    <rdf:RDF>
      <cc:Work
         rdf:about="">
        <dc:format>image/svg+xml</dc:format>
        <dc:type
           rdf:resource="http://purl.org/dc/dcmitype/StillImage" />
        <dc:title></dc:title>
      </cc:Work>
    </rdf:RDF>
  </metadata>
  <defs
     id="defs32" />
  <sodipodi:namedview
     pagecolor="#ffffff"
     bordercolor="#666666"
     borderopacity="1"
     objecttolerance="10"
     gridtolerance="10"
     guidetolerance="10"
     inkscape:pageopacity="0"
     inkscape:pageshadow="2"
     inkscape:window-width="640"
     inkscape:window-height="480"
     id="namedview30"
     showgrid="false"
     inkscape:current-layer="g27" />
  <g
     id="g27">
    <title
       id="title2" />
    <defs
       id="defs15">
      <linearGradient
         id="2234a2b0-8e35-4cb8-93a2-033d950b05a2"
         x1="9.038"
         y1="10.159"
         x2="9.038"
         y2="7.834"
         gradientUnits="userSpaceOnUse">
        <stop
           offset="0"
           stop-color="#5e9624"
           id="stop4" />
        <stop
           offset=".241"
           stop-color="#6fb02a"
           id="stop6" />
        <stop
           offset=".501"
           stop-color="#7cc52f"
           id="stop8" />
        <stop
           offset=".756"
           stop-color="#83d232"
           id="stop10" />
        <stop
           offset="1"
           stop-color="#86d633"
           id="stop12" />
      </linearGradient>
    </defs>
    <path
       d="M 9.034,7.839 C 8.0020201,7.8398927 7.486699,9.0881624 8.2172755,9.8168479 8.947852,10.545533 10.194782,10.026979 10.193,8.995 10.192448,8.3556154 9.6733839,7.8378945 9.034,7.839 Z"
       id="path17"
       inkscape:connector-curvature="0"
       style="fill:url(#2234a2b0-8e35-4cb8-93a2-033d950b05a2)"
       sodipodi:nodetypes="cscc" />
    <path
       d="M6.184 13.633l-.664.665a.3.3 0 0 1-.424 0L.184 9.402a.6.6 0 0 1-.001-.848l.664-.666 5.335 5.32a.3.3 0 0 1 0 .425z"
       fill="#50e6ff"
       id="path19" />
    <path
       d="M5.421 3.701l.67.667a.3.3 0 0 1 0 .425l-5.245 5.26-.666-.664a.6.6 0 0 1 0-.849L5 3.706a.3.3 0 0 1 .425 0z"
       fill="#1490df"
       id="path21" />
    <path
       d="M17.154 7.885l.664.665a.6.6 0 0 1-.001.849l-4.912 4.897a.3.3 0 0 1-.424 0l-.664-.666a.3.3 0 0 1 0-.424l5.337-5.321z"
       fill="#50e6ff"
       id="path23" />
    <path
       d="M17.823 9.386l-.665.664-5.245-5.26a.3.3 0 0 1 0-.424l.67-.668a.3.3 0 0 1 .424 0l4.82 4.834a.6.6 0 0 1-.002.849z"
       fill="#1490df"
       id="path25" />
  </g>
</svg>
