<svg viewBox="0 0 18 18" data-islogo="true" class="" role="presentation" focusable="false" xmlns:svg="http://www.w3.org/2000/svg" xmlns:xlink="http://www.w3.org/1999/xlink" id="FxSymbol0-0da" data-type="239"><g><title></title><defs><linearGradient id="39ca9fda-5ab7-43a7-8744-581cb8943965" x1="9" y1=".31" x2="9" y2="17.69" gradientUnits="userSpaceOnUse"><stop offset="0" stop-color="#c69aeb"></stop><stop offset=".09" stop-color="#bb90e4"></stop><stop offset=".49" stop-color="#926bc9"></stop><stop offset=".81" stop-color="#7854b8"></stop><stop offset="1" stop-color="#6f4bb2"></stop></linearGradient></defs><path d="M17.66 2.86L15.27.49a.58.58 0 0 0-.43-.18l-4.43.17a.52.52 0 0 0-.41.17L.34 10.27a.59.59 0 0 0 0 .83l6.44 6.41a.6.6 0 0 0 .84 0l9.69-9.63a.58.58 0 0 0 .17-.37l.35-4.19a.57.57 0 0 0-.17-.46zm-2.88 1.57a1.08 1.08 0 1 1 1.08-1.07 1.07 1.07 0 0 1-1.08 1.07z" fill="url(#39ca9fda-5ab7-43a7-8744-581cb8943965)"></path><path d="M14.78 1.44a1.92 1.92 0 1 0 1.93 1.92 1.93 1.93 0 0 0-1.93-1.92zm1.06 2.13a1.08 1.08 0 1 1-1.27-1.27 1.08 1.08 0 0 1 1.27 1.27z" fill="#552f99"></path></g></svg>