<svg xmlns="http://www.w3.org/2000/svg"  viewBox="0 0 20 20" class="" role="presentation" focusable="false"   id="FxSymbol0-030" data-type="1"><g><title></title><title>ServerSettings</title><path d="M20 11.08V8.8l-.32-.12-2.44-.8-.64-1.56 1.24-2.64-1.6-1.6-.32.16-2.28 1.16-1.56-.64-1-2.76H8.8l-.12.32-.8 2.44-1.56.64-2.6-1.24-1.6 1.6.16.32 1.16 2.28-.64 1.56-2.8 1v2.28l.32.12 2.44.8.64 1.56-1.24 2.64 1.6 1.6.32-.16 2.28-1.16 1.56.64 1 2.76h2.28l.12-.32.8-2.44 1.56-.64 2.64 1.24 1.6-1.6-.16-.32-1.16-2.28.64-1.56zM10 13.4a3.4 3.4 0 1 1 3.4-3.4 3.4 3.4 0 0 1-3.4 3.4z" fill="#505050"></path></g></svg>