<svg xmlns="http://www.w3.org/2000/svg"  viewBox="0 0 18 18" class="" role="presentation" focusable="false"   id="FxSymbol0-159" data-type="1"><g><title></title><defs><linearGradient id="8524568851753429" x1="3.29" y1="11.32" x2="3.3" y2="9"></linearGradient><linearGradient id="44239570889976676" x1="6.99" y1="11.32" x2="7" y2="9"></linearGradient><linearGradient id="9604184847248689" x1="10.7" y1="11.32" x2="10.7" y2="9" gradientTransform="rotate(-.08 -822.612 -1454.455)" gradientUnits="userSpaceOnUse"><stop offset="0" stop-color="#0078d4"></stop><stop offset=".82" stop-color="#5ea0ef"></stop></linearGradient></defs><title>Icon-networking-75</title><circle cx="12.74" cy="8.99" r="1.16" fill="url(#9604184847248689)"></circle><circle cx="9.04" cy="9" r="1.16" fill="url(#44239570889976676)"></circle><circle cx="5.34" cy="9" r="1.16" fill="url(#8524568851753429)"></circle><path d="M6.182 13.638l-.664.665a.3.3 0 0 1-.424 0L.18 9.404a.6.6 0 0 1-.001-.848l.663-.666 5.34 5.324a.3.3 0 0 1 0 .425z" fill="#50e6ff"></path><path d="M5.418 3.708l.666.664a.3.3 0 0 1 0 .424L.838 10.057l-.666-.663a.6.6 0 0 1-.001-.849L4.994 3.71a.3.3 0 0 1 .424 0z" fill="#1490df"></path><path d="M17.157 7.88l.663.666a.6.6 0 0 1 0 .848l-4.915 4.9a.3.3 0 0 1-.424 0l-.664-.666a.3.3 0 0 1 0-.424l5.34-5.324z" fill="#50e6ff"></path><path d="M17.818 9.387l-.665.664-5.247-5.261a.3.3 0 0 1 0-.425l.674-.67a.3.3 0 0 1 .424 0l4.823 4.836a.6.6 0 0 1-.002.849z" fill="#1490df"></path></g></svg>