<svg viewBox="0 0 50 50" class="fxs-portal-svg" role="presentation" focusable="false" xmlns:svg="http://www.w3.org/2000/svg" xmlns:xlink="http://www.w3.org/1999/xlink" id="FxSymbol0-043" data-type="1"><g><title></title><path d="M47 2H2.7C1.2 2 0 3.3 0 4.8v30.9c0 1.5 1.2 2.8 2.7 2.8h16.1c1.6 5.8-.6 6.6-10.2 6.6v3h32.6v-3c-9.6 0-10.6-.8-8.9-6.6H47c1.5 0 3-1.3 3-2.8V4.8C50 3.3 48.5 2 47 2z" style="fill: rgb(89, 180, 217);"></path><path d="M46.1 5.8v28.9H3.8V5.8z" style="fill: rgb(255, 255, 255);"></path><path d="M25.5 19.4h-.1l-8.8-5.1c-.1 0-.1-.1-.1-.2s.1-.2.1-.2l8.8-5h.3l8.8 5.1c.1 0 .1.1.1.2s0 .2-.1.2l-8.7 5h-.3m-1.2 12.3h-.1l-8.8-5.1c-.1 0-.1-.1-.1-.2V16.2c0-.1.1-.2.1-.2h.3l8.8 5.1c.1 0 .1.1.1.2v10.2c0 .1-.1.2-.1.2h-.2m2.5 0h-.1c-.1 0-.1-.1-.1-.2V21.4c0-.1.1-.2.1-.2l8.8-5.1h.3c.1 0 .1.1.1.2v10.1c0 .1-.1.2-.1.2L27 31.7h-.2" style="fill: rgb(0, 114, 198);"></path></g></svg>